<svg width="23" height="12" viewBox="0 0 23 12" fill="none" xmlns="http://www.w3.org/2000/svg">
<path fill-rule="evenodd" clip-rule="evenodd" d="M9.08679 0.000976562C9.32104 0.00149285 9.46489 0.258081 9.34265 0.458008L2.7948 11.1377C2.60051 11.3927 2.34278 11.5401 1.91492 11.5674H0.300658C0.0659233 11.5673 -0.0779075 11.3095 0.044799 11.1094L6.21081 1.05078C6.62671 0.393852 7.04577 0.0426564 7.82703 0.000976562H9.08679ZM18.2372 0.00585938C19.4825 0.0118712 20.1398 0.0229157 20.2479 0.0400391C20.4055 0.0636385 20.6702 0.118887 20.8319 0.162109C20.9936 0.205429 21.2707 0.315865 21.4442 0.402344C21.6333 0.500646 21.8618 0.658399 22.0116 0.803711C22.1495 0.933462 22.3359 1.14559 22.4227 1.27539C22.5094 1.40515 22.6311 1.62601 22.6864 1.76758C22.7455 1.90918 22.8208 2.13772 22.8563 2.2793C22.8918 2.42106 22.9391 2.72797 22.9628 2.96777C22.9864 3.23205 23.0019 4.90062 22.9979 7.25684C22.9979 10.133 22.9864 11.1454 22.951 11.25C22.9234 11.3286 22.8483 11.4234 22.7655 11.4746C22.6315 11.565 22.5988 11.5694 21.8104 11.5654C21.173 11.5654 20.9591 11.5528 20.8524 11.5059C20.7738 11.4743 20.6868 11.3958 20.6552 11.3291C20.6045 11.2315 20.5958 10.9584 20.5956 8.1123H8.40222L6.54382 11.1436C6.35334 11.3905 6.10199 11.5359 5.69031 11.5664H4.05456C3.82004 11.5662 3.67626 11.3094 3.79871 11.1094L9.96765 1.04492C10.3881 0.382574 10.8134 0.0336189 11.6132 0H18.2372V0.00585938ZM18.2372 2.10352H12.8466C12.2621 2.10887 11.9663 2.30862 11.744 2.67871V2.66309L9.78503 5.8584H20.5956C20.5952 4.22905 20.5751 3.60358 20.5516 3.41992C20.524 3.19209 20.4732 3.01068 20.3944 2.86133C20.3313 2.73556 20.2048 2.56215 20.1141 2.47559C20.0194 2.38527 19.8456 2.27962 19.7274 2.23633C19.6091 2.1931 19.388 2.14175 19.2343 2.12207C19.1758 2.11481 18.8124 2.10805 18.2372 2.10254V2.10352Z" fill="white"/>
</svg>
